<svg width="393" height="94" viewBox="0 0 393 94" fill="none" xmlns="http://www.w3.org/2000/svg">
<path d="M126.865 92.7881C104.51 92.7881 83.9444 91.8377 65.7385 89.9633C51.1729 88.4637 38.0765 86.3726 26.8134 83.7482C16.7923 81.4132 10.1082 79.0794 6.26555 77.5328C2.93754 76.1934 1.1089 75.1974 0.5 74.846V-23.639H392.5V74.5367C391.135 74.3107 387.418 73.7437 381.431 73.1837C374.355 72.5218 362.558 71.7328 346.54 71.7328C328.539 71.7328 308.982 72.7084 288.411 74.6324C258.938 77.389 233.656 81.1029 211.351 84.3797C180.638 88.8916 154.113 92.7881 126.865 92.7881Z" fill="#092769"/>
<path d="M1 -23.139V74.5543C1.77664 74.9855 3.55167 75.9048 6.52426 77.0979C10.3613 78.638 17.0349 80.9619 27.0377 83.287C38.2799 85.9003 51.3496 87.9824 65.8839 89.4756C84.049 91.3419 104.566 92.2881 126.865 92.2881C154.077 92.2881 180.585 88.394 211.278 83.885C233.59 80.6074 258.879 76.8924 288.364 74.1346C308.951 72.2091 328.524 71.2328 346.54 71.2328C362.577 71.2328 374.391 72.023 381.477 72.6858C386.825 73.1861 390.314 73.6819 392 73.9482V-23.139H1ZM0 -24.139H393V75.1302C393 75.1302 377.511 72.2328 346.54 72.2328C331.051 72.2328 311.694 72.9569 288.457 75.1302C218.755 81.6495 174.123 93.2881 126.865 93.2881C28.6147 93.2881 0 75.1302 0 75.1302V-24.139Z" fill="#707070"/>
</svg>
